<?xml version="1.0" encoding="UTF-8"?>
<svg xmlns="http://www.w3.org/2000/svg" width="1280" height="320" viewBox="0 0 1280 320" fill="none">
  <g opacity="0.9">
    <path d="M1067.89 69.2325C1046.81 88.6634 1118.15 146.452 1118.15 146.452C1118.15 146.452 1102.75 130.562 1099.62 109.402C1095.66 82.6085 1082.69 55.586 1067.89 69.2325" fill="#ED1C24"></path>
  </g>
  <path d="M1110.8 50.2925C1083.55 58.9116 1123.99 141.708 1123.99 141.708C1123.99 141.708 1116.7 120.741 1122.73 100.232C1130.36 74.26 1129.92 44.2375 1110.8 50.2925" fill="#ED1C24"></path>
  <path d="M1158.41 47.1136C1128.81 43.1458 1130.89 139.617 1130.89 139.617C1130.89 139.617 1133.16 116.498 1147.84 99.7504C1166.45 78.5398 1179.16 49.898 1158.41 47.1136" fill="#ED1C24"></path>
  <path d="M1199.57 72.416C1175.52 56.8979 1138.66 141.383 1138.66 141.383C1138.66 141.383 1149.88 122.264 1169.33 113.741C1193.96 102.938 1216.45 83.3103 1199.57 72.416" fill="#ED1C24"></path>
  <g opacity="0.9">
    <path d="M1228.8 109.333C1213.5 85.0121 1144.72 145.86 1144.72 145.86C1144.72 145.86 1162.9 133.319 1184.08 133.892C1210.93 134.603 1239.54 126.401 1228.8 109.333" fill="#ED1C24"></path>
  </g>
  <g opacity="0.8">
    <path d="M1239.84 155.254C1236.15 126.69 1148.33 152.502 1148.33 152.502C1148.33 152.502 1170.05 148.892 1189.03 158.442C1213.04 170.543 1242.42 175.318 1239.84 155.254" fill="#ED1C24"></path>
  </g>
  <g opacity="0.7">
    <path d="M1230.03 201.799C1238.66 174.332 1148.25 160.277 1148.25 160.277C1148.25 160.277 1169.46 166.272 1182.65 183.024C1199.36 204.226 1223.97 221.074 1230.03 201.799" fill="#ED1C24"></path>
  </g>
  <path d="M80.2002 126.474C72.0402 126.474 65.1202 124.755 59.4402 121.317C53.8402 117.799 49.5602 112.802 46.6002 106.325C43.6402 99.8484 42.1602 92.1325 42.1602 83.1772C42.1602 74.2219 43.6402 66.546 46.6002 60.1494C49.5602 53.6728 53.8402 48.7154 59.4402 45.2772C65.1202 41.7591 72.0402 40 80.2002 40C86.3602 40 91.7602 40.9995 96.4002 42.9984C101.12 44.9174 105.28 47.7559 108.88 51.5139L106.24 55.7117C102.32 51.9537 98.3202 49.2351 94.2402 47.556C90.2402 45.7969 85.5202 44.9174 80.0802 44.9174C69.4402 44.9174 61.3602 48.2756 55.8402 54.9921C50.3202 61.6286 47.5602 71.0236 47.5602 83.1772C47.5602 91.3329 48.7602 98.2892 51.1602 104.046C53.6402 109.723 57.2802 114.081 62.0802 117.119C66.9602 120.078 72.9602 121.557 80.0802 121.557C85.5202 121.557 90.2402 120.717 94.2402 119.038C98.3202 117.279 102.32 114.521 106.24 110.763L108.88 114.96C105.28 118.718 101.12 121.597 96.4002 123.596C91.6802 125.515 86.2802 126.474 80.2002 126.474Z" fill="#231F20"></path>
  <path d="M148.294 126.474C142.854 126.474 138.134 125.235 134.134 122.756C130.134 120.278 127.054 116.72 124.894 112.082C122.734 107.444 121.654 101.927 121.654 95.5307C121.654 89.0541 122.734 83.537 124.894 78.9794C127.134 74.3419 130.254 70.7838 134.254 68.3051C138.254 65.8264 142.934 64.587 148.294 64.587C153.974 64.587 158.814 66.0662 162.814 69.0247C166.894 71.9831 169.574 76.061 170.854 81.2582H169.414L170.614 65.5465H175.534C175.294 67.7853 175.054 69.9842 174.814 72.143C174.654 74.3019 174.574 76.4208 174.574 78.4997V125.515H169.534V109.803H170.854C169.574 115 166.894 119.078 162.814 122.037C158.734 124.995 153.894 126.474 148.294 126.474ZM148.294 121.797C154.854 121.797 160.054 119.558 163.894 115.08C167.734 110.523 169.654 104.006 169.654 95.5307C169.654 87.0552 167.734 80.5786 163.894 76.1009C160.054 71.5434 154.854 69.2646 148.294 69.2646C141.734 69.2646 136.494 71.5434 132.574 76.1009C128.734 80.5786 126.814 87.0552 126.814 95.5307C126.814 104.006 128.734 110.523 132.574 115.08C136.494 119.558 141.734 121.797 148.294 121.797Z" fill="#231F20"></path>
  <path d="M221.315 126.474C215.475 126.474 210.395 125.275 206.075 122.876C201.755 120.478 198.395 116.999 195.995 112.442C193.675 107.804 192.515 102.247 192.515 95.7706C192.515 89.3739 193.675 83.8569 195.995 79.2193C198.315 74.5818 201.555 70.9836 205.715 68.425C209.955 65.8664 214.795 64.587 220.235 64.587C225.435 64.587 229.835 65.7064 233.435 67.9453C237.115 70.1041 239.915 73.2624 241.835 77.4203C243.835 81.4981 244.835 86.3755 244.835 92.0525V95.2908H195.755V90.7332H242.195L240.155 92.2924C240.155 85.0962 238.475 79.4592 235.115 75.3813C231.755 71.2235 226.755 69.1446 220.115 69.1446C215.395 69.1446 211.355 70.264 207.995 72.5028C204.635 74.6617 202.075 77.7001 200.315 81.618C198.555 85.456 197.675 89.9736 197.675 95.1709V95.7706C197.675 104.246 199.755 110.723 203.915 115.2C208.075 119.598 213.875 121.797 221.315 121.797C225.075 121.797 228.595 121.197 231.875 119.998C235.155 118.798 238.315 116.759 241.355 113.881L243.875 117.839C241.395 120.557 238.115 122.676 234.035 124.196C229.955 125.715 225.715 126.474 221.315 126.474Z" fill="#231F20"></path>
  <path d="M262.416 125.515V78.4997C262.416 76.4208 262.296 74.3019 262.056 72.143C261.896 69.9842 261.696 67.7853 261.456 65.5465H266.376L267.456 79.9389H266.016C267.696 74.9016 270.496 71.1036 274.416 68.5449C278.416 65.9063 283.096 64.587 288.456 64.587C295.576 64.587 300.936 66.4261 304.536 70.1041C308.216 73.7822 310.056 79.5391 310.056 87.375V125.515H305.016V87.8547C305.016 81.3782 303.696 76.6607 301.056 73.7022C298.416 70.7438 294.256 69.2646 288.576 69.2646C282.096 69.2646 276.936 71.2235 273.096 75.1415C269.336 79.0594 267.456 84.3366 267.456 90.9731V125.515H262.416Z" fill="#231F20"></path>
  <path d="M358.754 126.474C351.954 126.474 346.034 125.595 340.994 123.836C335.954 121.997 331.434 119.358 327.434 115.92L329.954 111.602C332.914 113.921 335.754 115.84 338.474 117.359C341.194 118.798 344.154 119.878 347.354 120.597C350.634 121.237 354.394 121.557 358.634 121.557C366.474 121.557 372.394 119.998 376.394 116.879C380.474 113.681 382.514 109.443 382.514 104.166C382.514 99.6885 381.074 96.2503 378.194 93.8516C375.394 91.4528 370.554 89.5738 363.674 88.2146L351.794 85.8158C344.034 84.2167 338.274 81.698 334.514 78.2598C330.754 74.8216 328.874 70.0641 328.874 63.9873C328.874 59.1899 330.114 54.9921 332.594 51.394C335.074 47.7959 338.514 44.9974 342.914 42.9984C347.314 40.9995 352.434 40 358.274 40C364.194 40 369.594 40.9195 374.474 42.7585C379.354 44.5976 383.554 47.3561 387.074 51.0342L384.674 55.3519C380.754 51.5939 376.714 48.9153 372.554 47.3161C368.394 45.717 363.634 44.9174 358.274 44.9174C350.914 44.9174 345.034 46.6365 340.634 50.0747C336.314 53.5129 334.154 58.1504 334.154 63.9873C334.154 68.7049 335.554 72.3829 338.354 75.0215C341.154 77.5802 345.674 79.4992 351.914 80.7785L363.914 83.1772C372.234 84.8563 378.274 87.295 382.034 90.4934C385.874 93.6117 387.794 98.1293 387.794 104.046C387.794 108.444 386.634 112.362 384.314 115.8C381.994 119.158 378.634 121.797 374.234 123.716C369.914 125.555 364.754 126.474 358.754 126.474Z" fill="#231F20"></path>
  <path d="M425.956 126.474C418.996 126.474 413.716 124.595 410.116 120.837C406.516 117.079 404.716 111.322 404.716 103.566V65.5465H409.756V103.087C409.756 109.563 411.076 114.321 413.716 117.359C416.356 120.318 420.436 121.797 425.956 121.797C432.116 121.797 437.036 119.838 440.716 115.92C444.396 111.922 446.236 106.645 446.236 100.088V65.5465H451.276V125.515H446.356V110.883H447.796C446.196 115.84 443.436 119.678 439.516 122.397C435.676 125.115 431.156 126.474 425.956 126.474Z" fill="#231F20"></path>
  <path d="M473.241 151.421V78.4997C473.241 76.4208 473.121 74.3019 472.881 72.143C472.721 69.9842 472.521 67.7853 472.281 65.5465H477.201L478.401 81.2582H476.961C478.321 76.061 480.961 71.9831 484.881 69.0247C488.881 66.0662 493.761 64.587 499.521 64.587C504.961 64.587 509.641 65.8264 513.561 68.3051C517.561 70.7838 520.641 74.3419 522.801 78.9794C525.041 83.537 526.161 89.0541 526.161 95.5307C526.161 101.927 525.081 107.444 522.921 112.082C520.761 116.72 517.681 120.278 513.681 122.756C509.681 125.235 504.961 126.474 499.521 126.474C493.761 126.474 488.881 124.995 484.881 122.037C480.961 119.078 478.321 115 476.961 109.803H478.281V151.421H473.241ZM499.521 121.797C506.081 121.797 511.281 119.558 515.121 115.08C519.041 110.523 521.001 104.006 521.001 95.5307C521.001 87.0552 519.041 80.5786 515.121 76.1009C511.281 71.5434 506.081 69.2646 499.521 69.2646C492.961 69.2646 487.761 71.5434 483.921 76.1009C480.081 80.5786 478.161 87.0552 478.161 95.5307C478.161 104.006 480.081 110.523 483.921 115.08C487.761 119.558 492.961 121.797 499.521 121.797Z" fill="#231F20"></path>
  <path d="M60.9227 276.505C52.3546 274.179 45.3773 271.023 40 267.023L49.7182 244.913C55.4273 248.569 61.5046 251.372 67.9227 253.312C74.35 255.248 80.8046 256.221 87.2818 256.221C93.8773 256.221 98.9273 255.303 102.445 253.477C105.955 251.652 107.714 249.065 107.714 245.744C107.714 242.753 106.127 240.29 102.941 238.345C99.7546 236.409 93.7591 234.496 84.9728 232.611C73.8818 230.395 65.2591 227.643 59.1091 224.382C52.9591 221.111 48.6455 217.258 46.1727 212.827C43.7091 208.391 42.4727 203.006 42.4727 196.694C42.4727 189.488 44.5 182.974 48.5636 177.153C52.6273 171.336 58.3409 166.791 65.6955 163.52C73.0546 160.25 81.4591 158.621 90.9091 158.621C99.3682 158.621 107.577 159.809 115.541 162.19C123.509 164.571 129.736 167.704 134.246 171.584L124.686 193.699C119.523 190.043 114.086 187.24 108.373 185.304C102.664 183.364 96.9455 182.396 91.2409 182.396C85.6364 182.396 81.1318 183.479 77.7273 185.634C74.3182 187.8 72.6227 190.708 72.6227 194.364C72.6227 196.359 73.2227 198.024 74.4364 199.354C75.6409 200.685 77.8909 201.992 81.1909 203.263C84.4818 204.538 89.4273 205.896 96.0137 207.336C106.677 209.662 115.045 212.464 121.146 215.735C127.241 219.001 131.555 222.827 134.077 227.207C136.609 231.583 137.873 236.826 137.873 242.918C137.873 254.45 133.423 263.514 124.518 270.106C115.627 276.702 103.105 280 86.9546 280C78.1637 280 69.4909 278.835 60.9227 276.505" fill="#231F20"></path>
  <path fill-rule="evenodd" clip-rule="evenodd" d="M240.355 278.505V194.033H211.018V204.841C208.5 200.85 204.95 197.662 200.4 195.281C195.836 192.9 190.814 191.703 185.323 191.703C178.295 191.703 171.973 193.588 166.368 197.354C160.768 201.125 156.377 206.396 153.186 213.157C150 219.918 148.414 227.675 148.414 236.436C148.414 245.083 149.977 252.707 153.114 259.298C156.241 265.895 160.604 270.968 166.209 274.509C171.809 278.06 178.177 279.835 185.323 279.835C190.814 279.835 195.868 278.693 200.482 276.422C205.1 274.156 208.605 271.023 211.018 267.032V278.505H240.355ZM211.018 236.102C211.018 242.973 209.596 248.239 206.746 251.899C203.886 255.555 199.818 257.39 194.55 257.39C189.164 257.39 185.046 255.587 182.196 251.982C179.332 248.381 177.909 243.198 177.909 236.436C177.909 229.446 179.391 224.047 182.355 220.226C185.323 216.395 189.382 214.487 194.55 214.487C199.818 214.487 203.886 216.34 206.746 220.056C209.596 223.771 211.018 229.115 211.018 236.102Z" fill="#231F20"></path>
  <path fill-rule="evenodd" clip-rule="evenodd" d="M287.146 152.63H256.005V179.735H287.146V152.63ZM286.659 194.033H256.832V278.505H286.659V194.033Z" fill="#231F20"></path>
  <path d="M381.314 200.767C386.2 206.804 388.641 215.928 388.641 228.12V278.5H358.823V229.45C358.823 224.244 357.941 220.501 356.186 218.226C354.423 215.955 351.673 214.822 347.95 214.822C343.441 214.822 339.814 216.345 337.068 219.391C334.323 222.441 332.95 226.46 332.95 231.441V278.5H303.127V218.308C303.127 209.221 302.686 201.13 301.809 194.029H329.823L331.305 206.501C334.491 201.74 338.441 198.079 343.164 195.524C347.891 192.983 353.214 191.708 359.15 191.708C369.036 191.708 376.423 194.726 381.314 200.767" fill="#231F20"></path>
  <path d="M461.964 254.56V277.339C457.905 279 452.736 279.83 446.477 279.83C435.164 279.83 426.568 276.615 420.691 270.193C414.809 263.762 411.877 254.835 411.877 243.418V216.148H396.218V194.033H411.877V174.905L441.696 165.272V194.033H461.8V216.148H441.696V243.418C441.696 247.409 442.873 250.432 445.246 252.477C447.6 254.528 450.541 255.56 454.055 255.56C456.032 255.56 458.673 255.221 461.964 254.56" fill="#231F20"></path>
  <path fill-rule="evenodd" clip-rule="evenodd" d="M496.564 239.262H549.127V235.271C549.127 226.515 547.536 218.836 544.35 212.24C541.164 205.648 536.6 200.57 530.673 197.024C524.745 193.478 517.818 191.703 509.914 191.703C501.782 191.703 494.559 193.588 488.241 197.354C481.927 201.125 476.986 206.363 473.414 213.074C469.845 219.776 468.059 227.395 468.059 235.936C468.059 244.913 469.927 252.707 473.659 259.298C477.395 265.895 482.782 270.968 489.809 274.509C496.836 278.06 505.132 279.835 514.686 279.835C520.618 279.835 526.55 278.94 532.482 277.17C538.414 275.399 543.464 272.959 547.641 269.858L540.059 249.899C536.659 252.34 532.868 254.253 528.695 255.638C524.523 257.023 520.345 257.716 516.173 257.716C510.018 257.716 505.35 256.28 502.164 253.395C498.977 250.514 497.114 245.803 496.564 239.262ZM523.591 225.29H496.895C498.759 216.643 503.368 212.322 510.732 212.322C518.209 212.322 522.491 216.643 523.591 225.29Z" fill="#231F20"></path>
  <rect x="563.3" y="221.799" width="53.3818" height="23.2795" fill="#231F20"></rect>
  <path d="M648.809 266.95C640.023 258.248 635.632 245.473 635.632 228.62V160.116H665.777V229.785C665.777 238.322 667.677 244.863 671.468 249.404C675.255 253.954 680.664 256.225 687.7 256.225C694.614 256.225 699.941 253.927 703.677 249.326C707.414 244.721 709.282 238.212 709.282 229.785V160.116H739.759V228.62C739.759 245.248 735.291 257.964 726.336 266.78C717.377 275.596 704.505 280 687.7 280C670.559 280 657.595 275.656 648.809 266.95" fill="#231F20"></path>
  <path d="M819.346 193.864V221.304C814.619 219.088 810.064 217.978 805.669 217.978C793.146 217.978 786.887 224.024 786.887 236.106V278.5H757.064V218.308C757.064 209.221 756.623 201.13 755.746 194.033H783.755L785.569 208.166C787.546 202.955 790.728 198.969 795.128 196.194C799.514 193.428 804.464 192.033 809.951 192.033C814.019 192.033 817.151 192.648 819.346 193.864" fill="#231F20"></path>
  <path d="M820.828 269.688L828.409 249.234C832.914 252.34 838.023 254.757 843.732 256.473C849.441 258.193 855.05 259.051 860.537 259.051C863.941 259.051 866.582 258.546 868.45 257.546C870.314 256.555 871.246 255.17 871.246 253.39C871.246 251.844 870.559 250.601 869.191 249.652C867.814 248.711 865.205 247.854 861.364 247.078L847.85 243.918C839.282 242.143 833.105 239.34 829.309 235.524C825.528 231.693 823.637 226.4 823.637 219.639C823.637 214.207 825.223 209.391 828.409 205.175C831.596 200.96 836.019 197.662 841.678 195.281C847.328 192.896 853.837 191.708 861.2 191.708C867.237 191.708 873.173 192.598 878.996 194.368C884.819 196.143 890.255 198.63 895.309 201.845L887.396 221.799C883 218.918 878.5 216.703 873.887 215.148C869.278 213.597 864.932 212.822 860.873 212.822C857.569 212.822 854.991 213.35 853.128 214.4C851.255 215.455 850.323 216.978 850.323 218.978C850.323 220.194 850.873 221.166 851.969 221.886C853.069 222.606 855.155 223.349 858.237 224.134L872.237 227.29C881.137 229.4 887.537 232.473 891.437 236.524C895.332 240.565 897.282 246.078 897.282 253.06C897.282 261.376 894.014 267.918 887.482 272.688C880.946 277.445 871.905 279.835 860.373 279.835C843.673 279.835 830.496 276.459 820.828 269.688" fill="#231F20"></path>
  <path d="M993.009 194.033V278.505H963.846V267.197C958.468 275.624 950.5 279.835 939.95 279.835C929.296 279.835 921.364 276.844 916.146 270.853C910.927 264.867 908.318 255.73 908.318 243.413V194.033H938.141V244.248C938.141 252.56 941.709 256.716 948.855 256.716C953.023 256.716 956.405 255.225 958.982 252.234C961.564 249.239 962.859 245.248 962.859 240.258V194.033H993.009V194.033Z" fill="#231F20"></path>
  <rect x="1009.49" y="156.121" width="29.8227" height="122.383" fill="#231F20"></rect>
  <path fill-rule="evenodd" clip-rule="evenodd" d="M1080.5 239.262H1133.06V235.271C1133.06 226.515 1131.47 218.836 1128.28 212.24C1125.1 205.648 1120.53 200.57 1114.61 197.024C1108.68 193.478 1101.76 191.703 1093.85 191.703C1085.72 191.703 1078.5 193.588 1072.17 197.354C1065.86 201.125 1060.92 206.363 1057.35 213.074C1053.78 219.776 1052 227.395 1052 235.936C1052 244.913 1053.86 252.707 1057.6 259.298C1061.33 265.895 1066.71 270.968 1073.75 274.509C1080.77 278.06 1089.07 279.835 1098.62 279.835C1104.56 279.835 1110.48 278.94 1116.41 277.17C1122.35 275.399 1127.4 272.959 1131.58 269.858L1124 249.899C1120.59 252.34 1116.81 254.253 1112.63 255.638C1108.46 257.023 1104.28 257.716 1100.11 257.716C1093.95 257.716 1089.28 256.28 1086.1 253.395C1082.91 250.514 1081.05 245.803 1080.5 239.262ZM1107.52 225.29H1080.83C1082.7 216.643 1087.31 212.322 1094.67 212.322C1102.14 212.322 1106.42 216.643 1107.52 225.29Z" fill="#231F20"></path>
</svg>
